<mxfile host="app.diagrams.net" modified="2024-05-30T07:44:58.628Z" agent="Mozilla/5.0 (Windows NT 10.0; Win64; x64) AppleWebKit/537.36 (KHTML, like Gecko) Chrome/125.0.0.0 Safari/537.36 Edg/125.0.0.0" etag="1IwKhSVor5UB9-JUp9or" version="24.4.10" type="github" pages="7">
  <diagram id="U9lFCncFoz-Ha53rjx-l" name="百年孤独">
    <mxGraphModel dx="1687" dy="1103" grid="1" gridSize="10" guides="1" tooltips="1" connect="1" arrows="1" fold="1" page="1" pageScale="1" pageWidth="5000" pageHeight="5000" math="0" shadow="0">
      <root>
        <mxCell id="mTktfkCcy3LLw9KPby7B-0" />
        <mxCell id="mTktfkCcy3LLw9KPby7B-1" parent="mTktfkCcy3LLw9KPby7B-0" />
        <mxCell id="nxvzY0U2tuwO8sAZH7JP-14" value="何塞·阿尔卡蒂奥·布恩迪亚" style="rounded=0;whiteSpace=wrap;html=1;" parent="mTktfkCcy3LLw9KPby7B-1" vertex="1">
          <mxGeometry x="1480" y="1020" width="150" height="40" as="geometry" />
        </mxCell>
        <mxCell id="nxvzY0U2tuwO8sAZH7JP-15" value="乌尔苏拉·伊瓜兰" style="whiteSpace=wrap;html=1;" parent="mTktfkCcy3LLw9KPby7B-1" vertex="1">
          <mxGeometry x="1670" y="1020" width="110" height="40" as="geometry" />
        </mxCell>
        <mxCell id="nxvzY0U2tuwO8sAZH7JP-16" value="" style="endArrow=none;html=1;rounded=0;entryX=1;entryY=0.5;entryDx=0;entryDy=0;exitX=0;exitY=0.5;exitDx=0;exitDy=0;" parent="mTktfkCcy3LLw9KPby7B-1" source="nxvzY0U2tuwO8sAZH7JP-15" target="nxvzY0U2tuwO8sAZH7JP-14" edge="1">
          <mxGeometry width="50" height="50" relative="1" as="geometry">
            <mxPoint x="1500" y="1160" as="sourcePoint" />
            <mxPoint x="1550" y="1110" as="targetPoint" />
            <Array as="points">
              <mxPoint x="1650" y="1040" />
            </Array>
          </mxGeometry>
        </mxCell>
        <mxCell id="nxvzY0U2tuwO8sAZH7JP-17" value="" style="endArrow=none;html=1;rounded=0;exitX=1;exitY=1;exitDx=0;exitDy=0;" parent="mTktfkCcy3LLw9KPby7B-1" source="nxvzY0U2tuwO8sAZH7JP-21" edge="1">
          <mxGeometry width="50" height="50" relative="1" as="geometry">
            <mxPoint x="1615" y="1100" as="sourcePoint" />
            <mxPoint x="1650" y="1040" as="targetPoint" />
          </mxGeometry>
        </mxCell>
        <mxCell id="nxvzY0U2tuwO8sAZH7JP-18" value="&lt;span&gt;何塞·阿尔卡蒂奥&lt;/span&gt;" style="html=1;whiteSpace=wrap;" parent="mTktfkCcy3LLw9KPby7B-1" vertex="1">
          <mxGeometry x="1270" y="1140" width="100" height="40" as="geometry" />
        </mxCell>
        <mxCell id="nxvzY0U2tuwO8sAZH7JP-19" value="&lt;span&gt;奥雷里亚诺·布恩迪亚&lt;/span&gt;" style="html=1;whiteSpace=wrap;" parent="mTktfkCcy3LLw9KPby7B-1" vertex="1">
          <mxGeometry x="1590" y="1140" width="120" height="40" as="geometry" />
        </mxCell>
        <mxCell id="nxvzY0U2tuwO8sAZH7JP-20" value="" style="shape=partialRectangle;whiteSpace=wrap;html=1;bottom=1;right=1;left=1;top=0;fillColor=none;routingCenterX=-0.5;direction=west;" parent="mTktfkCcy3LLw9KPby7B-1" vertex="1">
          <mxGeometry x="1320" y="1100" width="330" height="40" as="geometry" />
        </mxCell>
        <mxCell id="nxvzY0U2tuwO8sAZH7JP-21" value="" style="shape=partialRectangle;whiteSpace=wrap;html=1;bottom=1;right=1;left=1;top=0;fillColor=none;routingCenterX=-0.5;direction=west;" parent="mTktfkCcy3LLw9KPby7B-1" vertex="1">
          <mxGeometry x="1650" y="1100" width="500" height="40" as="geometry" />
        </mxCell>
        <mxCell id="nxvzY0U2tuwO8sAZH7JP-22" value="&lt;span&gt;阿玛兰妲&lt;/span&gt;" style="html=1;whiteSpace=wrap;" parent="mTktfkCcy3LLw9KPby7B-1" vertex="1">
          <mxGeometry x="2090" y="1140" width="120" height="40" as="geometry" />
        </mxCell>
        <mxCell id="nxvzY0U2tuwO8sAZH7JP-23" value="&lt;span&gt;庇拉尔·特尔内拉&lt;/span&gt;" style="html=1;whiteSpace=wrap;" parent="mTktfkCcy3LLw9KPby7B-1" vertex="1">
          <mxGeometry x="1430" y="1140" width="100" height="40" as="geometry" />
        </mxCell>
        <mxCell id="nxvzY0U2tuwO8sAZH7JP-24" value="" style="endArrow=none;dashed=1;html=1;rounded=0;entryX=1;entryY=0.5;entryDx=0;entryDy=0;exitX=-0.033;exitY=0.537;exitDx=0;exitDy=0;exitPerimeter=0;" parent="mTktfkCcy3LLw9KPby7B-1" source="nxvzY0U2tuwO8sAZH7JP-23" target="nxvzY0U2tuwO8sAZH7JP-18" edge="1">
          <mxGeometry width="50" height="50" relative="1" as="geometry">
            <mxPoint x="1420" y="1160" as="sourcePoint" />
            <mxPoint x="1550" y="1110" as="targetPoint" />
          </mxGeometry>
        </mxCell>
        <mxCell id="nxvzY0U2tuwO8sAZH7JP-25" value="" style="endArrow=none;dashed=1;html=1;rounded=0;exitX=1;exitY=0.5;exitDx=0;exitDy=0;entryX=0;entryY=0.5;entryDx=0;entryDy=0;" parent="mTktfkCcy3LLw9KPby7B-1" source="nxvzY0U2tuwO8sAZH7JP-23" target="nxvzY0U2tuwO8sAZH7JP-19" edge="1">
          <mxGeometry width="50" height="50" relative="1" as="geometry">
            <mxPoint x="1500" y="1160" as="sourcePoint" />
            <mxPoint x="1550" y="1110" as="targetPoint" />
          </mxGeometry>
        </mxCell>
        <mxCell id="nxvzY0U2tuwO8sAZH7JP-26" value="&lt;span&gt;阿尔卡蒂奥&lt;/span&gt;" style="html=1;whiteSpace=wrap;" parent="mTktfkCcy3LLw9KPby7B-1" vertex="1">
          <mxGeometry x="1360" y="1220" width="80" height="40" as="geometry" />
        </mxCell>
        <mxCell id="nxvzY0U2tuwO8sAZH7JP-27" value="" style="endArrow=none;html=1;rounded=0;exitX=0.5;exitY=0;exitDx=0;exitDy=0;" parent="mTktfkCcy3LLw9KPby7B-1" source="nxvzY0U2tuwO8sAZH7JP-26" edge="1">
          <mxGeometry width="50" height="50" relative="1" as="geometry">
            <mxPoint x="1500" y="1160" as="sourcePoint" />
            <mxPoint x="1400" y="1160" as="targetPoint" />
          </mxGeometry>
        </mxCell>
        <mxCell id="exF3m7pNEWAU_ltyDbZ6-2" value="" style="shape=partialRectangle;whiteSpace=wrap;html=1;bottom=1;right=1;left=1;top=0;fillColor=none;routingCenterX=-0.5;direction=west;dashed=1;" parent="mTktfkCcy3LLw9KPby7B-1" vertex="1">
          <mxGeometry x="1020" y="1100" width="300" height="40" as="geometry" />
        </mxCell>
        <mxCell id="exF3m7pNEWAU_ltyDbZ6-6" value="&lt;span&gt;丽贝卡·布恩迪亚&lt;/span&gt;" style="html=1;whiteSpace=wrap;" parent="mTktfkCcy3LLw9KPby7B-1" vertex="1">
          <mxGeometry x="970" y="1140" width="100" height="40" as="geometry" />
        </mxCell>
        <mxCell id="exF3m7pNEWAU_ltyDbZ6-7" value="养女" style="text;html=1;strokeColor=none;fillColor=none;align=center;verticalAlign=middle;whiteSpace=wrap;rounded=0;dashed=1;" parent="mTktfkCcy3LLw9KPby7B-1" vertex="1">
          <mxGeometry x="1110" y="1060" width="60" height="30" as="geometry" />
        </mxCell>
        <mxCell id="exF3m7pNEWAU_ltyDbZ6-8" value="&lt;span&gt;蕾梅戴丝·摩斯科特&lt;/span&gt;" style="html=1;whiteSpace=wrap;" parent="mTktfkCcy3LLw9KPby7B-1" vertex="1">
          <mxGeometry x="1800" y="1140" width="120" height="40" as="geometry" />
        </mxCell>
        <mxCell id="exF3m7pNEWAU_ltyDbZ6-9" value="" style="endArrow=none;html=1;rounded=0;exitX=1;exitY=0.5;exitDx=0;exitDy=0;entryX=0;entryY=0.5;entryDx=0;entryDy=0;" parent="mTktfkCcy3LLw9KPby7B-1" source="nxvzY0U2tuwO8sAZH7JP-19" target="exF3m7pNEWAU_ltyDbZ6-8" edge="1">
          <mxGeometry width="50" height="50" relative="1" as="geometry">
            <mxPoint x="1820" y="970" as="sourcePoint" />
            <mxPoint x="1870" y="920" as="targetPoint" />
          </mxGeometry>
        </mxCell>
        <mxCell id="exF3m7pNEWAU_ltyDbZ6-10" value="&lt;span&gt;奥雷里亚诺·何塞&lt;/span&gt;" style="html=1;whiteSpace=wrap;" parent="mTktfkCcy3LLw9KPby7B-1" vertex="1">
          <mxGeometry x="1510" y="1220" width="100" height="40" as="geometry" />
        </mxCell>
        <mxCell id="exF3m7pNEWAU_ltyDbZ6-11" value="" style="endArrow=none;html=1;rounded=0;entryX=0.5;entryY=0;entryDx=0;entryDy=0;" parent="mTktfkCcy3LLw9KPby7B-1" target="exF3m7pNEWAU_ltyDbZ6-10" edge="1">
          <mxGeometry width="50" height="50" relative="1" as="geometry">
            <mxPoint x="1560" y="1160" as="sourcePoint" />
            <mxPoint x="1870" y="1030" as="targetPoint" />
          </mxGeometry>
        </mxCell>
        <mxCell id="exF3m7pNEWAU_ltyDbZ6-12" value="&lt;span&gt;桑塔索菲亚·德拉·彼达&lt;/span&gt;" style="html=1;whiteSpace=wrap;" parent="mTktfkCcy3LLw9KPby7B-1" vertex="1">
          <mxGeometry x="1160" y="1220" width="120" height="40" as="geometry" />
        </mxCell>
        <mxCell id="exF3m7pNEWAU_ltyDbZ6-14" value="" style="endArrow=none;html=1;rounded=0;exitX=1;exitY=0.5;exitDx=0;exitDy=0;entryX=0;entryY=0.5;entryDx=0;entryDy=0;" parent="mTktfkCcy3LLw9KPby7B-1" source="exF3m7pNEWAU_ltyDbZ6-12" target="nxvzY0U2tuwO8sAZH7JP-26" edge="1">
          <mxGeometry width="50" height="50" relative="1" as="geometry">
            <mxPoint x="1450" y="1070" as="sourcePoint" />
            <mxPoint x="1500" y="1020" as="targetPoint" />
          </mxGeometry>
        </mxCell>
        <mxCell id="exF3m7pNEWAU_ltyDbZ6-15" value="&lt;span&gt;雷梅黛丝&lt;/span&gt;" style="html=1;whiteSpace=wrap;" parent="mTktfkCcy3LLw9KPby7B-1" vertex="1">
          <mxGeometry x="1130" y="1350" width="70" height="40" as="geometry" />
        </mxCell>
        <mxCell id="exF3m7pNEWAU_ltyDbZ6-16" value="&lt;span&gt;何塞·阿尔卡蒂奥第二&lt;/span&gt;" style="html=1;whiteSpace=wrap;" parent="mTktfkCcy3LLw9KPby7B-1" vertex="1">
          <mxGeometry x="1250" y="1350" width="130" height="40" as="geometry" />
        </mxCell>
        <mxCell id="exF3m7pNEWAU_ltyDbZ6-17" value="&lt;span&gt;奥雷里亚诺第二&lt;/span&gt;" style="html=1;whiteSpace=wrap;" parent="mTktfkCcy3LLw9KPby7B-1" vertex="1">
          <mxGeometry x="1445" y="1350" width="100" height="40" as="geometry" />
        </mxCell>
        <mxCell id="exF3m7pNEWAU_ltyDbZ6-18" value="" style="shape=partialRectangle;whiteSpace=wrap;html=1;bottom=1;right=1;left=1;top=0;fillColor=none;routingCenterX=-0.5;direction=west;" parent="mTktfkCcy3LLw9KPby7B-1" vertex="1">
          <mxGeometry x="1170" y="1310" width="150" height="40" as="geometry" />
        </mxCell>
        <mxCell id="exF3m7pNEWAU_ltyDbZ6-19" value="" style="shape=partialRectangle;whiteSpace=wrap;html=1;bottom=1;right=1;left=1;top=0;fillColor=none;routingCenterX=-0.5;direction=west;" parent="mTktfkCcy3LLw9KPby7B-1" vertex="1">
          <mxGeometry x="1320" y="1310" width="170" height="40" as="geometry" />
        </mxCell>
        <mxCell id="exF3m7pNEWAU_ltyDbZ6-21" value="" style="endArrow=none;html=1;rounded=0;exitX=1;exitY=1;exitDx=0;exitDy=0;" parent="mTktfkCcy3LLw9KPby7B-1" source="exF3m7pNEWAU_ltyDbZ6-19" edge="1">
          <mxGeometry width="50" height="50" relative="1" as="geometry">
            <mxPoint x="1310" y="1230" as="sourcePoint" />
            <mxPoint x="1320" y="1240" as="targetPoint" />
          </mxGeometry>
        </mxCell>
        <mxCell id="exF3m7pNEWAU_ltyDbZ6-22" value="&lt;span&gt;奥雷里亚诺们&lt;/span&gt;" style="html=1;whiteSpace=wrap;" parent="mTktfkCcy3LLw9KPby7B-1" vertex="1">
          <mxGeometry x="1690" y="1220" width="90" height="40" as="geometry" />
        </mxCell>
        <mxCell id="exF3m7pNEWAU_ltyDbZ6-23" value="" style="shape=partialRectangle;whiteSpace=wrap;html=1;bottom=0;right=0;fillColor=none;direction=north;" parent="mTktfkCcy3LLw9KPby7B-1" vertex="1">
          <mxGeometry x="1690" y="1180" width="50" height="20" as="geometry" />
        </mxCell>
        <mxCell id="exF3m7pNEWAU_ltyDbZ6-25" value="" style="endArrow=none;html=1;rounded=0;exitX=0.551;exitY=-0.006;exitDx=0;exitDy=0;exitPerimeter=0;entryX=0;entryY=1;entryDx=0;entryDy=0;" parent="mTktfkCcy3LLw9KPby7B-1" source="exF3m7pNEWAU_ltyDbZ6-22" target="exF3m7pNEWAU_ltyDbZ6-23" edge="1">
          <mxGeometry width="50" height="50" relative="1" as="geometry">
            <mxPoint x="1740" y="1200" as="sourcePoint" />
            <mxPoint x="1735" y="1200" as="targetPoint" />
          </mxGeometry>
        </mxCell>
        <mxCell id="exF3m7pNEWAU_ltyDbZ6-27" value="私生子" style="text;html=1;strokeColor=none;fillColor=none;align=center;verticalAlign=middle;whiteSpace=wrap;rounded=0;" parent="mTktfkCcy3LLw9KPby7B-1" vertex="1">
          <mxGeometry x="1710" y="1175" width="60" height="30" as="geometry" />
        </mxCell>
        <mxCell id="exF3m7pNEWAU_ltyDbZ6-28" value="" style="endArrow=none;html=1;rounded=0;exitX=1;exitY=0.5;exitDx=0;exitDy=0;entryX=0;entryY=0.5;entryDx=0;entryDy=0;" parent="mTktfkCcy3LLw9KPby7B-1" source="exF3m7pNEWAU_ltyDbZ6-6" target="nxvzY0U2tuwO8sAZH7JP-18" edge="1">
          <mxGeometry width="50" height="50" relative="1" as="geometry">
            <mxPoint x="1550" y="1110" as="sourcePoint" />
            <mxPoint x="1600" y="1060" as="targetPoint" />
          </mxGeometry>
        </mxCell>
        <mxCell id="9Ow3BRkxIOtD8EgIuYvH-0" value="费尔南达·德尔·卡皮奥" style="html=1;whiteSpace=wrap;" parent="mTktfkCcy3LLw9KPby7B-1" vertex="1">
          <mxGeometry x="1590" y="1350" width="130" height="40" as="geometry" />
        </mxCell>
        <mxCell id="9Ow3BRkxIOtD8EgIuYvH-1" value="" style="endArrow=none;html=1;rounded=0;exitX=1;exitY=0.5;exitDx=0;exitDy=0;entryX=0;entryY=0.5;entryDx=0;entryDy=0;" parent="mTktfkCcy3LLw9KPby7B-1" source="exF3m7pNEWAU_ltyDbZ6-17" target="9Ow3BRkxIOtD8EgIuYvH-0" edge="1">
          <mxGeometry width="50" height="50" relative="1" as="geometry">
            <mxPoint x="1710" y="1360" as="sourcePoint" />
            <mxPoint x="1760" y="1310" as="targetPoint" />
          </mxGeometry>
        </mxCell>
        <mxCell id="9Ow3BRkxIOtD8EgIuYvH-2" value="&lt;span&gt;何塞·阿尔卡蒂奥&lt;/span&gt;" style="html=1;whiteSpace=wrap;" parent="mTktfkCcy3LLw9KPby7B-1" vertex="1">
          <mxGeometry x="1445" y="1480" width="100" height="40" as="geometry" />
        </mxCell>
        <mxCell id="9Ow3BRkxIOtD8EgIuYvH-4" value="&lt;span&gt;阿玛兰妲·乌尔苏拉&lt;/span&gt;" style="html=1;whiteSpace=wrap;" parent="mTktfkCcy3LLw9KPby7B-1" vertex="1">
          <mxGeometry x="1600" y="1480" width="110" height="40" as="geometry" />
        </mxCell>
        <mxCell id="9Ow3BRkxIOtD8EgIuYvH-5" value="" style="endArrow=none;html=1;rounded=0;exitX=0.532;exitY=0.987;exitDx=0;exitDy=0;exitPerimeter=0;" parent="mTktfkCcy3LLw9KPby7B-1" source="9Ow3BRkxIOtD8EgIuYvH-6" edge="1">
          <mxGeometry width="50" height="50" relative="1" as="geometry">
            <mxPoint x="1560" y="1440" as="sourcePoint" />
            <mxPoint x="1570" y="1370" as="targetPoint" />
          </mxGeometry>
        </mxCell>
        <mxCell id="9Ow3BRkxIOtD8EgIuYvH-6" value="" style="shape=partialRectangle;whiteSpace=wrap;html=1;bottom=1;right=1;left=1;top=0;fillColor=none;routingCenterX=-0.5;direction=west;" parent="mTktfkCcy3LLw9KPby7B-1" vertex="1">
          <mxGeometry x="1490" y="1440" width="170" height="40" as="geometry" />
        </mxCell>
        <mxCell id="gpl2jkOL1Lfsa9OtN4AN-0" value="雷纳塔·雷梅黛丝（梅梅）" style="html=1;whiteSpace=wrap;" parent="mTktfkCcy3LLw9KPby7B-1" vertex="1">
          <mxGeometry x="1780" y="1480" width="110" height="40" as="geometry" />
        </mxCell>
        <mxCell id="gpl2jkOL1Lfsa9OtN4AN-1" value="" style="shape=partialRectangle;whiteSpace=wrap;html=1;bottom=1;right=1;left=1;top=0;fillColor=none;routingCenterX=-0.5;direction=west;" parent="mTktfkCcy3LLw9KPby7B-1" vertex="1">
          <mxGeometry x="1660" y="1440" width="170" height="40" as="geometry" />
        </mxCell>
        <mxCell id="fa5kPJjUduffBClvarA1-2" value="乌里肖·巴比伦" style="html=1;whiteSpace=wrap;" parent="mTktfkCcy3LLw9KPby7B-1" vertex="1">
          <mxGeometry x="1950" y="1480" width="110" height="40" as="geometry" />
        </mxCell>
        <mxCell id="fa5kPJjUduffBClvarA1-3" value="" style="endArrow=none;html=1;rounded=0;exitX=1;exitY=0.5;exitDx=0;exitDy=0;entryX=0;entryY=0.5;entryDx=0;entryDy=0;" parent="mTktfkCcy3LLw9KPby7B-1" source="gpl2jkOL1Lfsa9OtN4AN-0" target="fa5kPJjUduffBClvarA1-2" edge="1">
          <mxGeometry width="50" height="50" relative="1" as="geometry">
            <mxPoint x="1820" y="1380" as="sourcePoint" />
            <mxPoint x="1870" y="1330" as="targetPoint" />
          </mxGeometry>
        </mxCell>
        <mxCell id="fa5kPJjUduffBClvarA1-4" value="" style="endArrow=none;html=1;rounded=0;" parent="mTktfkCcy3LLw9KPby7B-1" edge="1">
          <mxGeometry width="50" height="50" relative="1" as="geometry">
            <mxPoint x="1920" y="1500" as="sourcePoint" />
            <mxPoint x="1920" y="1560" as="targetPoint" />
          </mxGeometry>
        </mxCell>
        <mxCell id="fa5kPJjUduffBClvarA1-5" value="奥雷里亚诺·巴比伦" style="html=1;whiteSpace=wrap;" parent="mTktfkCcy3LLw9KPby7B-1" vertex="1">
          <mxGeometry x="1870" y="1560" width="110" height="40" as="geometry" />
        </mxCell>
        <mxCell id="fa5kPJjUduffBClvarA1-6" value="" style="endArrow=none;dashed=1;html=1;dashPattern=1 3;strokeWidth=2;rounded=0;exitX=1;exitY=1;exitDx=0;exitDy=0;entryX=0;entryY=0.5;entryDx=0;entryDy=0;" parent="mTktfkCcy3LLw9KPby7B-1" source="9Ow3BRkxIOtD8EgIuYvH-4" target="fa5kPJjUduffBClvarA1-5" edge="1">
          <mxGeometry width="50" height="50" relative="1" as="geometry">
            <mxPoint x="1820" y="1480" as="sourcePoint" />
            <mxPoint x="1870" y="1430" as="targetPoint" />
          </mxGeometry>
        </mxCell>
      </root>
    </mxGraphModel>
  </diagram>
  <diagram id="e-SFKXNKBWswFehqiBMm" name="Notification">
    <mxGraphModel dx="1663" dy="1101" grid="1" gridSize="10" guides="1" tooltips="1" connect="1" arrows="1" fold="1" page="1" pageScale="1" pageWidth="5000" pageHeight="5000" math="0" shadow="0">
      <root>
        <mxCell id="2DhS5ighocyCwo71qJ5m-0" />
        <mxCell id="2DhS5ighocyCwo71qJ5m-1" parent="2DhS5ighocyCwo71qJ5m-0" />
        <mxCell id="2DhS5ighocyCwo71qJ5m-2" value="Accout Level" style="rounded=1;whiteSpace=wrap;html=1;" parent="2DhS5ighocyCwo71qJ5m-1" vertex="1">
          <mxGeometry x="740" y="300" width="120" height="60" as="geometry" />
        </mxCell>
        <mxCell id="2DhS5ighocyCwo71qJ5m-3" value="Customer level" style="rounded=1;whiteSpace=wrap;html=1;" parent="2DhS5ighocyCwo71qJ5m-1" vertex="1">
          <mxGeometry x="740" y="440" width="120" height="60" as="geometry" />
        </mxCell>
        <mxCell id="2DhS5ighocyCwo71qJ5m-4" value="Single account" style="ellipse;whiteSpace=wrap;html=1;fillColor=#ffe6cc;strokeColor=#d79b00;" parent="2DhS5ighocyCwo71qJ5m-1" vertex="1">
          <mxGeometry x="1110" y="220" width="120" height="80" as="geometry" />
        </mxCell>
        <mxCell id="2DhS5ighocyCwo71qJ5m-7" value="" style="endArrow=classic;html=1;rounded=0;entryX=0;entryY=0.625;entryDx=0;entryDy=0;entryPerimeter=0;exitX=1;exitY=0.5;exitDx=0;exitDy=0;" parent="2DhS5ighocyCwo71qJ5m-1" source="2DhS5ighocyCwo71qJ5m-2" target="2DhS5ighocyCwo71qJ5m-4" edge="1">
          <mxGeometry width="50" height="50" relative="1" as="geometry">
            <mxPoint x="890" y="590" as="sourcePoint" />
            <mxPoint x="940" y="540" as="targetPoint" />
          </mxGeometry>
        </mxCell>
        <mxCell id="2DhS5ighocyCwo71qJ5m-9" value="" style="endArrow=classic;html=1;rounded=0;entryX=0.017;entryY=0.592;entryDx=0;entryDy=0;entryPerimeter=0;exitX=1;exitY=0.5;exitDx=0;exitDy=0;" parent="2DhS5ighocyCwo71qJ5m-1" source="2DhS5ighocyCwo71qJ5m-2" target="2DhS5ighocyCwo71qJ5m-5" edge="1">
          <mxGeometry width="50" height="50" relative="1" as="geometry">
            <mxPoint x="890" y="590" as="sourcePoint" />
            <mxPoint x="940" y="540" as="targetPoint" />
          </mxGeometry>
        </mxCell>
        <mxCell id="2DhS5ighocyCwo71qJ5m-10" value="" style="endArrow=classic;html=1;rounded=0;entryX=0;entryY=0.5;entryDx=0;entryDy=0;exitX=1;exitY=0.5;exitDx=0;exitDy=0;" parent="2DhS5ighocyCwo71qJ5m-1" source="2DhS5ighocyCwo71qJ5m-2" target="2DhS5ighocyCwo71qJ5m-6" edge="1">
          <mxGeometry width="50" height="50" relative="1" as="geometry">
            <mxPoint x="890" y="590" as="sourcePoint" />
            <mxPoint x="940" y="540" as="targetPoint" />
          </mxGeometry>
        </mxCell>
        <mxCell id="2DhS5ighocyCwo71qJ5m-12" value="" style="swimlane;startSize=0;" parent="2DhS5ighocyCwo71qJ5m-1" vertex="1">
          <mxGeometry x="1050" y="360" width="260" height="270" as="geometry">
            <mxRectangle x="1050" y="360" width="50" height="40" as="alternateBounds" />
          </mxGeometry>
        </mxCell>
        <mxCell id="2DhS5ighocyCwo71qJ5m-5" value="MCC single account" style="ellipse;whiteSpace=wrap;html=1;fillColor=#dae8fc;strokeColor=#6c8ebf;" parent="2DhS5ighocyCwo71qJ5m-12" vertex="1">
          <mxGeometry x="60" y="20" width="120" height="80" as="geometry" />
        </mxCell>
        <mxCell id="2DhS5ighocyCwo71qJ5m-6" value="MCC multiple account" style="ellipse;whiteSpace=wrap;html=1;fillColor=#dae8fc;strokeColor=#6c8ebf;" parent="2DhS5ighocyCwo71qJ5m-12" vertex="1">
          <mxGeometry x="60" y="170" width="120" height="80" as="geometry" />
        </mxCell>
        <mxCell id="2DhS5ighocyCwo71qJ5m-13" value="" style="endArrow=classic;html=1;rounded=0;exitX=1;exitY=0.5;exitDx=0;exitDy=0;" parent="2DhS5ighocyCwo71qJ5m-1" source="2DhS5ighocyCwo71qJ5m-3" target="2DhS5ighocyCwo71qJ5m-12" edge="1">
          <mxGeometry width="50" height="50" relative="1" as="geometry">
            <mxPoint x="890" y="590" as="sourcePoint" />
            <mxPoint x="940" y="540" as="targetPoint" />
          </mxGeometry>
        </mxCell>
      </root>
    </mxGraphModel>
  </diagram>
  <diagram id="9Uq0NOS5h0lK-Lg45Lw_" name="AIV appeal flow - 1">
    <mxGraphModel dx="2249" dy="1471" grid="1" gridSize="10" guides="1" tooltips="1" connect="1" arrows="1" fold="1" page="1" pageScale="1" pageWidth="3300" pageHeight="4681" math="0" shadow="0">
      <root>
        <mxCell id="0" />
        <mxCell id="1" parent="0" />
        <mxCell id="U-phMhAzb0dOGk_xv7zu-1" value="" style="edgeStyle=orthogonalEdgeStyle;rounded=0;orthogonalLoop=1;jettySize=auto;html=1;" edge="1" parent="1" source="U-phMhAzb0dOGk_xv7zu-2" target="U-phMhAzb0dOGk_xv7zu-4">
          <mxGeometry relative="1" as="geometry" />
        </mxCell>
        <mxCell id="U-phMhAzb0dOGk_xv7zu-2" value="AIV status failed" style="rounded=0;whiteSpace=wrap;html=1;fontSize=14;" vertex="1" parent="1">
          <mxGeometry x="1500" y="500" width="120" height="60" as="geometry" />
        </mxCell>
        <mxCell id="U-phMhAzb0dOGk_xv7zu-20" value="" style="edgeStyle=orthogonalEdgeStyle;rounded=0;orthogonalLoop=1;jettySize=auto;html=1;" edge="1" parent="1" source="U-phMhAzb0dOGk_xv7zu-4" target="U-phMhAzb0dOGk_xv7zu-12">
          <mxGeometry relative="1" as="geometry" />
        </mxCell>
        <mxCell id="U-phMhAzb0dOGk_xv7zu-4" value="Submit AIV appeal" style="whiteSpace=wrap;html=1;fontSize=14;rounded=0;" vertex="1" parent="1">
          <mxGeometry x="1660" y="500" width="120" height="60" as="geometry" />
        </mxCell>
        <mxCell id="U-phMhAzb0dOGk_xv7zu-21" value="" style="edgeStyle=orthogonalEdgeStyle;rounded=0;orthogonalLoop=1;jettySize=auto;html=1;" edge="1" parent="1" source="U-phMhAzb0dOGk_xv7zu-12" target="U-phMhAzb0dOGk_xv7zu-13">
          <mxGeometry relative="1" as="geometry" />
        </mxCell>
        <mxCell id="U-phMhAzb0dOGk_xv7zu-12" value="MT bundle the uploaded files and create UCM ticket" style="whiteSpace=wrap;html=1;fontSize=14;rounded=0;" vertex="1" parent="1">
          <mxGeometry x="1820" y="500" width="120" height="60" as="geometry" />
        </mxCell>
        <mxCell id="U-phMhAzb0dOGk_xv7zu-68" value="" style="edgeStyle=orthogonalEdgeStyle;rounded=0;orthogonalLoop=1;jettySize=auto;html=1;" edge="1" parent="1" source="U-phMhAzb0dOGk_xv7zu-13" target="U-phMhAzb0dOGk_xv7zu-17">
          <mxGeometry relative="1" as="geometry" />
        </mxCell>
        <mxCell id="U-phMhAzb0dOGk_xv7zu-13" value="Support review UCM ticket" style="whiteSpace=wrap;html=1;fontSize=14;rounded=0;" vertex="1" parent="1">
          <mxGeometry x="1820" y="600" width="120" height="60" as="geometry" />
        </mxCell>
        <mxCell id="U-phMhAzb0dOGk_xv7zu-19" value="" style="edgeStyle=orthogonalEdgeStyle;rounded=0;orthogonalLoop=1;jettySize=auto;html=1;" edge="1" parent="1" source="U-phMhAzb0dOGk_xv7zu-17" target="U-phMhAzb0dOGk_xv7zu-18">
          <mxGeometry relative="1" as="geometry" />
        </mxCell>
        <mxCell id="U-phMhAzb0dOGk_xv7zu-17" value="Go to AIV internal tool" style="whiteSpace=wrap;html=1;fontSize=14;rounded=0;" vertex="1" parent="1">
          <mxGeometry x="1820" y="700" width="120" height="60" as="geometry" />
        </mxCell>
        <mxCell id="U-phMhAzb0dOGk_xv7zu-24" value="" style="edgeStyle=orthogonalEdgeStyle;rounded=0;orthogonalLoop=1;jettySize=auto;html=1;" edge="1" parent="1" source="U-phMhAzb0dOGk_xv7zu-18" target="U-phMhAzb0dOGk_xv7zu-23">
          <mxGeometry relative="1" as="geometry" />
        </mxCell>
        <mxCell id="U-phMhAzb0dOGk_xv7zu-25" value="Override failed" style="edgeLabel;html=1;align=center;verticalAlign=middle;resizable=0;points=[];" vertex="1" connectable="0" parent="U-phMhAzb0dOGk_xv7zu-24">
          <mxGeometry x="-0.1083" y="1" relative="1" as="geometry">
            <mxPoint as="offset" />
          </mxGeometry>
        </mxCell>
        <mxCell id="U-phMhAzb0dOGk_xv7zu-27" value="" style="edgeStyle=orthogonalEdgeStyle;rounded=0;orthogonalLoop=1;jettySize=auto;html=1;" edge="1" parent="1" source="U-phMhAzb0dOGk_xv7zu-18" target="U-phMhAzb0dOGk_xv7zu-26">
          <mxGeometry relative="1" as="geometry" />
        </mxCell>
        <mxCell id="U-phMhAzb0dOGk_xv7zu-28" value="Verified" style="edgeLabel;html=1;align=center;verticalAlign=middle;resizable=0;points=[];" vertex="1" connectable="0" parent="U-phMhAzb0dOGk_xv7zu-27">
          <mxGeometry x="-0.1333" y="-1" relative="1" as="geometry">
            <mxPoint as="offset" />
          </mxGeometry>
        </mxCell>
        <mxCell id="U-phMhAzb0dOGk_xv7zu-18" value="Set AIV override status" style="rhombus;whiteSpace=wrap;html=1;fontSize=12;rounded=0;" vertex="1" parent="1">
          <mxGeometry x="1820" y="800" width="120" height="80" as="geometry" />
        </mxCell>
        <mxCell id="U-phMhAzb0dOGk_xv7zu-23" value="AIV appeal failed" style="whiteSpace=wrap;html=1;fontSize=14;rounded=0;" vertex="1" parent="1">
          <mxGeometry x="1820" y="960" width="120" height="60" as="geometry" />
        </mxCell>
        <mxCell id="U-phMhAzb0dOGk_xv7zu-26" value="AIV verified" style="whiteSpace=wrap;html=1;fontSize=14;rounded=0;" vertex="1" parent="1">
          <mxGeometry x="1620" y="810" width="120" height="60" as="geometry" />
        </mxCell>
      </root>
    </mxGraphModel>
  </diagram>
  <diagram id="0xGJUj-6f_s6tOBzGb6g" name="AIV appeal flow - 2">
    <mxGraphModel dx="1687" dy="1103" grid="1" gridSize="10" guides="1" tooltips="1" connect="1" arrows="1" fold="1" page="1" pageScale="1" pageWidth="2336" pageHeight="1654" math="0" shadow="0">
      <root>
        <mxCell id="0" />
        <mxCell id="1" parent="0" />
        <mxCell id="RP8uBjyyQmaYxwuL_Cur-1" value="" style="edgeStyle=orthogonalEdgeStyle;rounded=0;orthogonalLoop=1;jettySize=auto;html=1;" edge="1" parent="1" source="RP8uBjyyQmaYxwuL_Cur-2" target="RP8uBjyyQmaYxwuL_Cur-4">
          <mxGeometry relative="1" as="geometry" />
        </mxCell>
        <mxCell id="RP8uBjyyQmaYxwuL_Cur-2" value="AIV status failed" style="rounded=0;whiteSpace=wrap;html=1;fontSize=14;" vertex="1" parent="1">
          <mxGeometry x="640" y="390" width="120" height="60" as="geometry" />
        </mxCell>
        <mxCell id="RP8uBjyyQmaYxwuL_Cur-3" value="" style="edgeStyle=orthogonalEdgeStyle;rounded=0;orthogonalLoop=1;jettySize=auto;html=1;" edge="1" parent="1" source="RP8uBjyyQmaYxwuL_Cur-4" target="RP8uBjyyQmaYxwuL_Cur-6">
          <mxGeometry relative="1" as="geometry" />
        </mxCell>
        <mxCell id="RP8uBjyyQmaYxwuL_Cur-4" value="Submit AIV appeal" style="whiteSpace=wrap;html=1;fontSize=14;rounded=0;" vertex="1" parent="1">
          <mxGeometry x="840" y="390" width="120" height="60" as="geometry" />
        </mxCell>
        <mxCell id="RP8uBjyyQmaYxwuL_Cur-5" value="" style="edgeStyle=orthogonalEdgeStyle;rounded=0;orthogonalLoop=1;jettySize=auto;html=1;" edge="1" parent="1" source="RP8uBjyyQmaYxwuL_Cur-6" target="RP8uBjyyQmaYxwuL_Cur-8">
          <mxGeometry relative="1" as="geometry" />
        </mxCell>
        <mxCell id="RP8uBjyyQmaYxwuL_Cur-6" value="MT create UCM ticket with a link to the apeal page" style="whiteSpace=wrap;html=1;fontSize=14;rounded=0;" vertex="1" parent="1">
          <mxGeometry x="1040" y="390" width="120" height="60" as="geometry" />
        </mxCell>
        <mxCell id="RP8uBjyyQmaYxwuL_Cur-7" value="" style="edgeStyle=orthogonalEdgeStyle;rounded=0;orthogonalLoop=1;jettySize=auto;html=1;entryX=0.5;entryY=0;entryDx=0;entryDy=0;" edge="1" parent="1" source="RP8uBjyyQmaYxwuL_Cur-19" target="RP8uBjyyQmaYxwuL_Cur-17">
          <mxGeometry relative="1" as="geometry">
            <mxPoint x="1100" y="680" as="targetPoint" />
          </mxGeometry>
        </mxCell>
        <mxCell id="RP8uBjyyQmaYxwuL_Cur-8" value="Support review UCM ticket" style="whiteSpace=wrap;html=1;fontSize=14;rounded=0;" vertex="1" parent="1">
          <mxGeometry x="1040" y="490" width="120" height="60" as="geometry" />
        </mxCell>
        <mxCell id="RP8uBjyyQmaYxwuL_Cur-9" value="" style="edgeStyle=orthogonalEdgeStyle;rounded=0;orthogonalLoop=1;jettySize=auto;html=1;" edge="1" parent="1" source="RP8uBjyyQmaYxwuL_Cur-13" target="RP8uBjyyQmaYxwuL_Cur-14">
          <mxGeometry relative="1" as="geometry" />
        </mxCell>
        <mxCell id="RP8uBjyyQmaYxwuL_Cur-10" value="Override failed" style="edgeLabel;html=1;align=center;verticalAlign=middle;resizable=0;points=[];" vertex="1" connectable="0" parent="RP8uBjyyQmaYxwuL_Cur-9">
          <mxGeometry x="-0.1083" y="1" relative="1" as="geometry">
            <mxPoint as="offset" />
          </mxGeometry>
        </mxCell>
        <mxCell id="RP8uBjyyQmaYxwuL_Cur-11" value="" style="edgeStyle=orthogonalEdgeStyle;rounded=0;orthogonalLoop=1;jettySize=auto;html=1;" edge="1" parent="1" source="RP8uBjyyQmaYxwuL_Cur-13" target="RP8uBjyyQmaYxwuL_Cur-15">
          <mxGeometry relative="1" as="geometry" />
        </mxCell>
        <mxCell id="RP8uBjyyQmaYxwuL_Cur-12" value="Verified" style="edgeLabel;html=1;align=center;verticalAlign=middle;resizable=0;points=[];" vertex="1" connectable="0" parent="RP8uBjyyQmaYxwuL_Cur-11">
          <mxGeometry x="-0.1333" y="-1" relative="1" as="geometry">
            <mxPoint as="offset" />
          </mxGeometry>
        </mxCell>
        <mxCell id="RP8uBjyyQmaYxwuL_Cur-13" value="Set AIV override status" style="rhombus;whiteSpace=wrap;html=1;fontSize=12;rounded=0;" vertex="1" parent="1">
          <mxGeometry x="1040" y="800" width="120" height="80" as="geometry" />
        </mxCell>
        <mxCell id="RP8uBjyyQmaYxwuL_Cur-14" value="AIV appeal failed" style="whiteSpace=wrap;html=1;fontSize=14;rounded=0;" vertex="1" parent="1">
          <mxGeometry x="1040" y="960" width="120" height="60" as="geometry" />
        </mxCell>
        <mxCell id="RP8uBjyyQmaYxwuL_Cur-15" value="AIV verified" style="whiteSpace=wrap;html=1;fontSize=14;rounded=0;" vertex="1" parent="1">
          <mxGeometry x="840" y="810" width="120" height="60" as="geometry" />
        </mxCell>
        <mxCell id="RP8uBjyyQmaYxwuL_Cur-16" value="" style="edgeStyle=orthogonalEdgeStyle;rounded=0;orthogonalLoop=1;jettySize=auto;html=1;" edge="1" parent="1" source="RP8uBjyyQmaYxwuL_Cur-17" target="RP8uBjyyQmaYxwuL_Cur-13">
          <mxGeometry relative="1" as="geometry" />
        </mxCell>
        <mxCell id="RP8uBjyyQmaYxwuL_Cur-17" value="Go to AIV internal tool" style="whiteSpace=wrap;html=1;fontSize=14;rounded=0;" vertex="1" parent="1">
          <mxGeometry x="1040" y="690" width="120" height="60" as="geometry" />
        </mxCell>
        <mxCell id="RP8uBjyyQmaYxwuL_Cur-18" value="" style="edgeStyle=orthogonalEdgeStyle;rounded=0;orthogonalLoop=1;jettySize=auto;html=1;" edge="1" parent="1" source="RP8uBjyyQmaYxwuL_Cur-8" target="RP8uBjyyQmaYxwuL_Cur-19">
          <mxGeometry relative="1" as="geometry">
            <mxPoint x="1100" y="680" as="targetPoint" />
            <mxPoint x="1100" y="550" as="sourcePoint" />
          </mxGeometry>
        </mxCell>
        <mxCell id="RP8uBjyyQmaYxwuL_Cur-19" value="Go to the appeal page to review the files" style="whiteSpace=wrap;html=1;fontSize=14;rounded=0;" vertex="1" parent="1">
          <mxGeometry x="1040" y="590" width="120" height="60" as="geometry" />
        </mxCell>
      </root>
    </mxGraphModel>
  </diagram>
  <diagram id="ZwX5wwy6vWXC3dV84Mzv" name="AIV appeal flow - 3">
    <mxGraphModel dx="1687" dy="-551" grid="1" gridSize="10" guides="1" tooltips="1" connect="1" arrows="1" fold="1" page="1" pageScale="1" pageWidth="2336" pageHeight="1654" math="0" shadow="0">
      <root>
        <mxCell id="0" />
        <mxCell id="1" parent="0" />
        <mxCell id="tI6QXY4mhZXHtJQ7At_6-1" value="" style="edgeStyle=orthogonalEdgeStyle;rounded=0;orthogonalLoop=1;jettySize=auto;html=1;" edge="1" parent="1" source="tI6QXY4mhZXHtJQ7At_6-2" target="tI6QXY4mhZXHtJQ7At_6-4">
          <mxGeometry relative="1" as="geometry" />
        </mxCell>
        <mxCell id="tI6QXY4mhZXHtJQ7At_6-2" value="AIV status failed" style="rounded=0;whiteSpace=wrap;html=1;fontSize=14;" vertex="1" parent="1">
          <mxGeometry x="360" y="1890" width="120" height="60" as="geometry" />
        </mxCell>
        <mxCell id="tI6QXY4mhZXHtJQ7At_6-3" value="" style="edgeStyle=orthogonalEdgeStyle;rounded=0;orthogonalLoop=1;jettySize=auto;html=1;" edge="1" parent="1" source="tI6QXY4mhZXHtJQ7At_6-4" target="tI6QXY4mhZXHtJQ7At_6-6">
          <mxGeometry relative="1" as="geometry" />
        </mxCell>
        <mxCell id="tI6QXY4mhZXHtJQ7At_6-4" value="Submit AIV appeal" style="whiteSpace=wrap;html=1;fontSize=14;rounded=0;" vertex="1" parent="1">
          <mxGeometry x="560" y="1890" width="120" height="60" as="geometry" />
        </mxCell>
        <mxCell id="tI6QXY4mhZXHtJQ7At_6-5" value="" style="edgeStyle=orthogonalEdgeStyle;rounded=0;orthogonalLoop=1;jettySize=auto;html=1;" edge="1" parent="1" source="tI6QXY4mhZXHtJQ7At_6-6" target="tI6QXY4mhZXHtJQ7At_6-7">
          <mxGeometry relative="1" as="geometry" />
        </mxCell>
        <mxCell id="tI6QXY4mhZXHtJQ7At_6-6" value="MT create UCM ticket with a link to the apeal page" style="whiteSpace=wrap;html=1;fontSize=14;rounded=0;" vertex="1" parent="1">
          <mxGeometry x="760" y="1890" width="120" height="60" as="geometry" />
        </mxCell>
        <mxCell id="tI6QXY4mhZXHtJQ7At_6-7" value="Support review UCM ticket" style="whiteSpace=wrap;html=1;fontSize=14;rounded=0;" vertex="1" parent="1">
          <mxGeometry x="760" y="1990" width="120" height="60" as="geometry" />
        </mxCell>
        <mxCell id="tI6QXY4mhZXHtJQ7At_6-8" value="" style="edgeStyle=orthogonalEdgeStyle;rounded=0;orthogonalLoop=1;jettySize=auto;html=1;" edge="1" parent="1" source="tI6QXY4mhZXHtJQ7At_6-12" target="tI6QXY4mhZXHtJQ7At_6-13">
          <mxGeometry relative="1" as="geometry" />
        </mxCell>
        <mxCell id="tI6QXY4mhZXHtJQ7At_6-9" value="Override failed" style="edgeLabel;html=1;align=center;verticalAlign=middle;resizable=0;points=[];" vertex="1" connectable="0" parent="tI6QXY4mhZXHtJQ7At_6-8">
          <mxGeometry x="-0.1083" y="1" relative="1" as="geometry">
            <mxPoint as="offset" />
          </mxGeometry>
        </mxCell>
        <mxCell id="tI6QXY4mhZXHtJQ7At_6-10" value="" style="edgeStyle=orthogonalEdgeStyle;rounded=0;orthogonalLoop=1;jettySize=auto;html=1;" edge="1" parent="1" source="tI6QXY4mhZXHtJQ7At_6-12" target="tI6QXY4mhZXHtJQ7At_6-14">
          <mxGeometry relative="1" as="geometry" />
        </mxCell>
        <mxCell id="tI6QXY4mhZXHtJQ7At_6-11" value="Verified" style="edgeLabel;html=1;align=center;verticalAlign=middle;resizable=0;points=[];" vertex="1" connectable="0" parent="tI6QXY4mhZXHtJQ7At_6-10">
          <mxGeometry x="-0.1333" y="-1" relative="1" as="geometry">
            <mxPoint as="offset" />
          </mxGeometry>
        </mxCell>
        <mxCell id="tI6QXY4mhZXHtJQ7At_6-12" value="Set AIV override status on the appeal page" style="rhombus;whiteSpace=wrap;html=1;fontSize=12;rounded=0;" vertex="1" parent="1">
          <mxGeometry x="750" y="2200" width="140" height="80" as="geometry" />
        </mxCell>
        <mxCell id="tI6QXY4mhZXHtJQ7At_6-13" value="AIV appeal failed" style="whiteSpace=wrap;html=1;fontSize=14;rounded=0;" vertex="1" parent="1">
          <mxGeometry x="760" y="2360" width="120" height="60" as="geometry" />
        </mxCell>
        <mxCell id="tI6QXY4mhZXHtJQ7At_6-14" value="AIV verified" style="whiteSpace=wrap;html=1;fontSize=14;rounded=0;" vertex="1" parent="1">
          <mxGeometry x="560" y="2210" width="120" height="60" as="geometry" />
        </mxCell>
        <mxCell id="tI6QXY4mhZXHtJQ7At_6-15" value="" style="edgeStyle=orthogonalEdgeStyle;rounded=0;orthogonalLoop=1;jettySize=auto;html=1;" edge="1" parent="1" target="tI6QXY4mhZXHtJQ7At_6-12">
          <mxGeometry relative="1" as="geometry">
            <mxPoint x="820" y="2150" as="sourcePoint" />
          </mxGeometry>
        </mxCell>
        <mxCell id="tI6QXY4mhZXHtJQ7At_6-16" value="" style="edgeStyle=orthogonalEdgeStyle;rounded=0;orthogonalLoop=1;jettySize=auto;html=1;" edge="1" parent="1" source="tI6QXY4mhZXHtJQ7At_6-7" target="tI6QXY4mhZXHtJQ7At_6-17">
          <mxGeometry relative="1" as="geometry">
            <mxPoint x="820" y="2180" as="targetPoint" />
            <mxPoint x="820" y="2050" as="sourcePoint" />
          </mxGeometry>
        </mxCell>
        <mxCell id="tI6QXY4mhZXHtJQ7At_6-17" value="Go to the appeal page to review the files" style="whiteSpace=wrap;html=1;fontSize=14;rounded=0;" vertex="1" parent="1">
          <mxGeometry x="760" y="2090" width="120" height="60" as="geometry" />
        </mxCell>
      </root>
    </mxGraphModel>
  </diagram>
  <diagram id="7dwt_kUHs4p0KbUASDCh" name="Delinking-1">
    <mxGraphModel dx="1157" dy="770" grid="1" gridSize="10" guides="1" tooltips="1" connect="1" arrows="1" fold="1" page="1" pageScale="1" pageWidth="3300" pageHeight="4681" math="0" shadow="0">
      <root>
        <mxCell id="0" />
        <mxCell id="1" parent="0" />
        <mxCell id="hZREDSKmsS4wpeqSh7Um-1" value="C1" style="rounded=0;whiteSpace=wrap;html=1;fillColor=#d5e8d4;strokeColor=#82b366;" vertex="1" parent="1">
          <mxGeometry x="270" y="570" width="120" height="60" as="geometry" />
        </mxCell>
        <mxCell id="hZREDSKmsS4wpeqSh7Um-2" value="C2" style="whiteSpace=wrap;html=1;fillColor=#dae8fc;strokeColor=#6c8ebf;" vertex="1" parent="1">
          <mxGeometry x="550" y="465" width="90" height="270" as="geometry" />
        </mxCell>
        <mxCell id="hZREDSKmsS4wpeqSh7Um-3" value="" style="endArrow=classic;html=1;rounded=0;exitX=1;exitY=0.5;exitDx=0;exitDy=0;entryX=0;entryY=0.5;entryDx=0;entryDy=0;" edge="1" parent="1" source="hZREDSKmsS4wpeqSh7Um-1" target="hZREDSKmsS4wpeqSh7Um-2">
          <mxGeometry width="50" height="50" relative="1" as="geometry">
            <mxPoint x="520" y="520" as="sourcePoint" />
            <mxPoint x="570" y="470" as="targetPoint" />
          </mxGeometry>
        </mxCell>
        <mxCell id="hZREDSKmsS4wpeqSh7Um-9" value="Link to" style="edgeLabel;html=1;align=center;verticalAlign=middle;resizable=0;points=[];" vertex="1" connectable="0" parent="hZREDSKmsS4wpeqSh7Um-3">
          <mxGeometry x="-0.1723" y="1" relative="1" as="geometry">
            <mxPoint as="offset" />
          </mxGeometry>
        </mxCell>
        <mxCell id="hZREDSKmsS4wpeqSh7Um-4" value="A1" style="ellipse;whiteSpace=wrap;html=1;aspect=fixed;fillColor=#dae8fc;strokeColor=#6c8ebf;" vertex="1" parent="1">
          <mxGeometry x="575" y="480" width="40" height="40" as="geometry" />
        </mxCell>
        <mxCell id="hZREDSKmsS4wpeqSh7Um-5" value="A2" style="ellipse;whiteSpace=wrap;html=1;aspect=fixed;fillColor=#dae8fc;strokeColor=#6c8ebf;" vertex="1" parent="1">
          <mxGeometry x="575" y="530" width="40" height="40" as="geometry" />
        </mxCell>
        <mxCell id="hZREDSKmsS4wpeqSh7Um-7" value="A3" style="ellipse;whiteSpace=wrap;html=1;aspect=fixed;fillColor=#fff2cc;strokeColor=#d6b656;" vertex="1" parent="1">
          <mxGeometry x="575" y="620" width="40" height="40" as="geometry" />
        </mxCell>
        <mxCell id="hZREDSKmsS4wpeqSh7Um-8" value="A4" style="ellipse;whiteSpace=wrap;html=1;aspect=fixed;fillColor=#e1d5e7;strokeColor=#9673a6;" vertex="1" parent="1">
          <mxGeometry x="575" y="680" width="40" height="40" as="geometry" />
        </mxCell>
        <mxCell id="hZREDSKmsS4wpeqSh7Um-13" value="" style="endArrow=classic;html=1;rounded=0;" edge="1" parent="1">
          <mxGeometry width="50" height="50" relative="1" as="geometry">
            <mxPoint x="450" y="530" as="sourcePoint" />
            <mxPoint x="450" y="590" as="targetPoint" />
          </mxGeometry>
        </mxCell>
        <mxCell id="hZREDSKmsS4wpeqSh7Um-14" value="break" style="text;html=1;align=center;verticalAlign=middle;resizable=0;points=[];autosize=1;strokeColor=none;fillColor=none;" vertex="1" parent="1">
          <mxGeometry x="420" y="500" width="50" height="30" as="geometry" />
        </mxCell>
        <mxCell id="hZREDSKmsS4wpeqSh7Um-15" value="C0" style="rounded=0;whiteSpace=wrap;html=1;fillColor=#fff2cc;strokeColor=#d6b656;" vertex="1" parent="1">
          <mxGeometry x="40" y="570" width="120" height="60" as="geometry" />
        </mxCell>
        <mxCell id="hZREDSKmsS4wpeqSh7Um-16" value="" style="endArrow=classic;html=1;rounded=0;exitX=1;exitY=0.5;exitDx=0;exitDy=0;entryX=0;entryY=0.5;entryDx=0;entryDy=0;" edge="1" parent="1" source="hZREDSKmsS4wpeqSh7Um-15" target="hZREDSKmsS4wpeqSh7Um-1">
          <mxGeometry width="50" height="50" relative="1" as="geometry">
            <mxPoint x="460" y="540" as="sourcePoint" />
            <mxPoint x="510" y="490" as="targetPoint" />
          </mxGeometry>
        </mxCell>
        <mxCell id="WOdI9O3GKgFlwQzeH232-1" value="A5" style="ellipse;whiteSpace=wrap;html=1;aspect=fixed;fillColor=#ffe6cc;strokeColor=#d79b00;" vertex="1" parent="1">
          <mxGeometry x="680" y="500" width="40" height="40" as="geometry" />
        </mxCell>
        <mxCell id="WOdI9O3GKgFlwQzeH232-2" value="" style="endArrow=classic;html=1;rounded=0;entryX=-0.112;entryY=0.491;entryDx=0;entryDy=0;entryPerimeter=0;" edge="1" parent="1" target="WOdI9O3GKgFlwQzeH232-1">
          <mxGeometry width="50" height="50" relative="1" as="geometry">
            <mxPoint x="640" y="520" as="sourcePoint" />
            <mxPoint x="730.0000000000002" y="520.69" as="targetPoint" />
          </mxGeometry>
        </mxCell>
        <mxCell id="WqiaulFqX5vqEiA478iS-1" value="" style="endArrow=classic;html=1;rounded=0;exitX=1;exitY=0.5;exitDx=0;exitDy=0;entryX=0;entryY=0.5;entryDx=0;entryDy=0;" edge="1" parent="1">
          <mxGeometry width="50" height="50" relative="1" as="geometry">
            <mxPoint x="640" y="599.66" as="sourcePoint" />
            <mxPoint x="750" y="599.66" as="targetPoint" />
          </mxGeometry>
        </mxCell>
        <mxCell id="WqiaulFqX5vqEiA478iS-2" value="C3" style="whiteSpace=wrap;html=1;" vertex="1" parent="1">
          <mxGeometry x="750" y="465" width="90" height="270" as="geometry" />
        </mxCell>
        <mxCell id="WqiaulFqX5vqEiA478iS-3" value="A6" style="ellipse;whiteSpace=wrap;html=1;aspect=fixed;fillColor=#dae8fc;strokeColor=#6c8ebf;" vertex="1" parent="1">
          <mxGeometry x="775" y="480" width="40" height="40" as="geometry" />
        </mxCell>
        <mxCell id="WqiaulFqX5vqEiA478iS-4" value="A7" style="ellipse;whiteSpace=wrap;html=1;aspect=fixed;fillColor=#d5e8d4;strokeColor=#82b366;" vertex="1" parent="1">
          <mxGeometry x="775" y="530" width="40" height="40" as="geometry" />
        </mxCell>
        <mxCell id="WqiaulFqX5vqEiA478iS-5" value="A8" style="ellipse;whiteSpace=wrap;html=1;aspect=fixed;fillColor=#d5e8d4;strokeColor=#82b366;" vertex="1" parent="1">
          <mxGeometry x="775" y="620" width="40" height="40" as="geometry" />
        </mxCell>
        <mxCell id="WqiaulFqX5vqEiA478iS-6" value="A9" style="ellipse;whiteSpace=wrap;html=1;aspect=fixed;fillColor=#fff2cc;strokeColor=#d6b656;" vertex="1" parent="1">
          <mxGeometry x="775" y="680" width="40" height="40" as="geometry" />
        </mxCell>
        <mxCell id="WqiaulFqX5vqEiA478iS-7" value="No billing setup needed: A1, A2, A6, A5, A9, A7, A8&lt;div&gt;&lt;div&gt;&lt;br&gt;&lt;/div&gt;&lt;/div&gt;" style="text;html=1;align=center;verticalAlign=middle;resizable=0;points=[];autosize=1;strokeColor=none;fillColor=none;" vertex="1" parent="1">
          <mxGeometry x="130" y="425" width="290" height="40" as="geometry" />
        </mxCell>
        <mxCell id="WqiaulFqX5vqEiA478iS-8" value="Billing setup needed: A3" style="text;html=1;align=center;verticalAlign=middle;resizable=0;points=[];autosize=1;strokeColor=none;fillColor=none;" vertex="1" parent="1">
          <mxGeometry x="130" y="450" width="150" height="30" as="geometry" />
        </mxCell>
        <mxCell id="WqiaulFqX5vqEiA478iS-9" value="" style="endArrow=classic;html=1;rounded=0;" edge="1" parent="1">
          <mxGeometry width="50" height="50" relative="1" as="geometry">
            <mxPoint x="594.66" y="410" as="sourcePoint" />
            <mxPoint x="594.66" y="465" as="targetPoint" />
          </mxGeometry>
        </mxCell>
        <mxCell id="WqiaulFqX5vqEiA478iS-10" value="Start here" style="edgeLabel;html=1;align=center;verticalAlign=middle;resizable=0;points=[];" vertex="1" connectable="0" parent="WqiaulFqX5vqEiA478iS-9">
          <mxGeometry x="-0.373" y="-1" relative="1" as="geometry">
            <mxPoint as="offset" />
          </mxGeometry>
        </mxCell>
      </root>
    </mxGraphModel>
  </diagram>
  <diagram id="aBbzw8r4tJmNC3rhe95u" name="Page-7">
    <mxGraphModel dx="1157" dy="770" grid="1" gridSize="10" guides="1" tooltips="1" connect="1" arrows="1" fold="1" page="1" pageScale="1" pageWidth="850" pageHeight="1100" math="0" shadow="0">
      <root>
        <mxCell id="0" />
        <mxCell id="1" parent="0" />
        <mxCell id="2KNvN4zTlQE9R_nA4IAC-7" value="" style="edgeStyle=orthogonalEdgeStyle;rounded=0;orthogonalLoop=1;jettySize=auto;html=1;entryX=0.5;entryY=1;entryDx=0;entryDy=0;strokeColor=#FFB570;" edge="1" parent="1" source="2KNvN4zTlQE9R_nA4IAC-1" target="2KNvN4zTlQE9R_nA4IAC-3">
          <mxGeometry relative="1" as="geometry">
            <mxPoint x="220" y="590" as="targetPoint" />
            <Array as="points">
              <mxPoint x="220" y="540" />
              <mxPoint x="115" y="540" />
            </Array>
          </mxGeometry>
        </mxCell>
        <mxCell id="2KNvN4zTlQE9R_nA4IAC-9" value="bill to" style="edgeLabel;html=1;align=center;verticalAlign=middle;resizable=0;points=[];" vertex="1" connectable="0" parent="2KNvN4zTlQE9R_nA4IAC-7">
          <mxGeometry x="-0.0043" y="-1" relative="1" as="geometry">
            <mxPoint as="offset" />
          </mxGeometry>
        </mxCell>
        <mxCell id="2KNvN4zTlQE9R_nA4IAC-1" value="A1" style="ellipse;whiteSpace=wrap;html=1;aspect=fixed;" vertex="1" parent="1">
          <mxGeometry x="200" y="480" width="40" height="40" as="geometry" />
        </mxCell>
        <mxCell id="2KNvN4zTlQE9R_nA4IAC-4" value="" style="edgeStyle=orthogonalEdgeStyle;rounded=0;orthogonalLoop=1;jettySize=auto;html=1;entryX=0.5;entryY=0;entryDx=0;entryDy=0;dashed=1;" edge="1" parent="1" source="2KNvN4zTlQE9R_nA4IAC-2" target="2KNvN4zTlQE9R_nA4IAC-1">
          <mxGeometry relative="1" as="geometry">
            <mxPoint x="230" y="420" as="targetPoint" />
          </mxGeometry>
        </mxCell>
        <mxCell id="2KNvN4zTlQE9R_nA4IAC-11" value="link" style="edgeLabel;html=1;align=center;verticalAlign=middle;resizable=0;points=[];" vertex="1" connectable="0" parent="2KNvN4zTlQE9R_nA4IAC-4">
          <mxGeometry x="-0.001" y="-2" relative="1" as="geometry">
            <mxPoint as="offset" />
          </mxGeometry>
        </mxCell>
        <mxCell id="2KNvN4zTlQE9R_nA4IAC-2" value="Agency 1" style="whiteSpace=wrap;html=1;" vertex="1" parent="1">
          <mxGeometry x="80" y="400" width="70" height="40" as="geometry" />
        </mxCell>
        <mxCell id="2KNvN4zTlQE9R_nA4IAC-5" value="" style="edgeStyle=orthogonalEdgeStyle;rounded=0;orthogonalLoop=1;jettySize=auto;html=1;" edge="1" parent="1" source="2KNvN4zTlQE9R_nA4IAC-3" target="2KNvN4zTlQE9R_nA4IAC-1">
          <mxGeometry relative="1" as="geometry" />
        </mxCell>
        <mxCell id="2KNvN4zTlQE9R_nA4IAC-12" value="link" style="edgeLabel;html=1;align=center;verticalAlign=middle;resizable=0;points=[];" vertex="1" connectable="0" parent="2KNvN4zTlQE9R_nA4IAC-5">
          <mxGeometry x="-0.1674" y="1" relative="1" as="geometry">
            <mxPoint as="offset" />
          </mxGeometry>
        </mxCell>
        <mxCell id="2KNvN4zTlQE9R_nA4IAC-3" value="Agency 2" style="whiteSpace=wrap;html=1;" vertex="1" parent="1">
          <mxGeometry x="80" y="480" width="70" height="40" as="geometry" />
        </mxCell>
        <mxCell id="2KNvN4zTlQE9R_nA4IAC-10" value="" style="endArrow=classic;html=1;rounded=0;" edge="1" parent="1">
          <mxGeometry width="50" height="50" relative="1" as="geometry">
            <mxPoint x="190" y="380" as="sourcePoint" />
            <mxPoint x="190" y="420" as="targetPoint" />
          </mxGeometry>
        </mxCell>
        <mxCell id="2KNvN4zTlQE9R_nA4IAC-13" value="Unlink" style="edgeLabel;html=1;align=center;verticalAlign=middle;resizable=0;points=[];" vertex="1" connectable="0" parent="2KNvN4zTlQE9R_nA4IAC-10">
          <mxGeometry x="-0.408" y="3" relative="1" as="geometry">
            <mxPoint as="offset" />
          </mxGeometry>
        </mxCell>
      </root>
    </mxGraphModel>
  </diagram>
</mxfile>
